<mxfile host="app.diagrams.net" modified="2023-11-23T07:57:23.797Z" agent="Mozilla/5.0 (Macintosh; Intel Mac OS X 10_15_7) AppleWebKit/537.36 (KHTML, like Gecko) Chrome/119.0.0.0 Safari/537.36" etag="BwAUOldNwayfV6BBj4xI" version="22.1.3" type="google">
  <diagram name="Page-1" id="UpQfXl-DkcGahVSdvex6">
    <mxGraphModel grid="1" page="1" gridSize="10" guides="1" tooltips="1" connect="1" arrows="1" fold="1" pageScale="1" pageWidth="3300" pageHeight="2339" background="#ffffff" math="0" shadow="0">
      <root>
        <mxCell id="0" />
        <mxCell id="1" parent="0" />
        <mxCell id="6uDZv4sGKnMwtpJIftTi-2" value="&lt;font style=&quot;font-size: 20px;&quot;&gt;Frontend&lt;br&gt;Chrome,&lt;br&gt;Mobile App&lt;br&gt;&lt;/font&gt;" style="rounded=1;whiteSpace=wrap;html=1;fillColor=#d5e8d4;strokeColor=#82b366;" vertex="1" parent="1">
          <mxGeometry x="330" y="250" width="120" height="630" as="geometry" />
        </mxCell>
        <mxCell id="6uDZv4sGKnMwtpJIftTi-14" value="" style="endArrow=block;html=1;rounded=0;fillColor=#60a917;strokeColor=#2D7600;strokeWidth=10;endFill=1;" edge="1" parent="1">
          <mxGeometry width="50" height="50" relative="1" as="geometry">
            <mxPoint x="460" y="480" as="sourcePoint" />
            <mxPoint x="650" y="480" as="targetPoint" />
          </mxGeometry>
        </mxCell>
        <mxCell id="4RIrmKNSk8DNVuc5E2D_-2" value="&lt;font color=&quot;#00331a&quot; style=&quot;font-size: 14px;&quot;&gt;Restful Requests&lt;br&gt;Get, Post, Put, Delete&lt;br&gt;&lt;/font&gt;" style="rounded=1;whiteSpace=wrap;html=1;fillColor=none;fontColor=#ffffff;strokeColor=none;fontStyle=1;fontSize=14;align=left;" vertex="1" parent="1">
          <mxGeometry x="460" y="420" width="170" height="50" as="geometry" />
        </mxCell>
        <mxCell id="4RIrmKNSk8DNVuc5E2D_-3" value="&amp;nbsp; &amp;nbsp; &amp;nbsp; &amp;nbsp;&amp;nbsp;" style="rounded=1;whiteSpace=wrap;html=1;fillColor=none;strokeColor=#9673a6;arcSize=3;strokeWidth=3;" vertex="1" parent="1">
          <mxGeometry x="659" y="247" width="730" height="520" as="geometry" />
        </mxCell>
        <mxCell id="4RIrmKNSk8DNVuc5E2D_-4" value="&lt;font color=&quot;#00331a&quot; style=&quot;&quot;&gt;&lt;font style=&quot;font-size: 18px;&quot;&gt;&amp;nbsp;Once per request filter&lt;br&gt;&lt;/font&gt;&amp;nbsp;doFilterInternal()&lt;br&gt;&lt;/font&gt;" style="rounded=1;whiteSpace=wrap;html=1;fillColor=none;fontColor=#ffffff;strokeColor=none;fontStyle=1;fontSize=14;align=left;" vertex="1" parent="1">
          <mxGeometry x="965" y="197" width="230" height="50" as="geometry" />
        </mxCell>
        <mxCell id="4RIrmKNSk8DNVuc5E2D_-5" value="" style="endArrow=block;html=1;rounded=0;fillColor=#60a917;strokeColor=#2D7600;strokeWidth=6;endFill=1;entryX=0.744;entryY=0.292;entryDx=0;entryDy=0;entryPerimeter=0;" edge="1" parent="1">
          <mxGeometry width="50" height="50" relative="1" as="geometry">
            <mxPoint x="794" y="474.8399999999999" as="sourcePoint" />
            <mxPoint x="954.1599999999999" y="395" as="targetPoint" />
          </mxGeometry>
        </mxCell>
        <mxCell id="4RIrmKNSk8DNVuc5E2D_-6" value="&lt;font color=&quot;#00331a&quot; style=&quot;font-size: 14px;&quot;&gt;isBypassToken&lt;br&gt;&lt;/font&gt;" style="rounded=1;whiteSpace=wrap;html=1;fillColor=none;fontColor=#ffffff;strokeColor=none;fontStyle=1;fontSize=14;align=left;" vertex="1" parent="1">
          <mxGeometry x="680" y="454.8399999999999" width="170" height="50" as="geometry" />
        </mxCell>
        <mxCell id="4RIrmKNSk8DNVuc5E2D_-11" value="" style="endArrow=block;html=1;rounded=0;fillColor=#60a917;strokeColor=#CC0000;strokeWidth=6;endFill=1;" edge="1" parent="1">
          <mxGeometry width="50" height="50" relative="1" as="geometry">
            <mxPoint x="796.5" y="500" as="sourcePoint" />
            <mxPoint x="941.5" y="591.1600000000001" as="targetPoint" />
          </mxGeometry>
        </mxCell>
        <mxCell id="4RIrmKNSk8DNVuc5E2D_-12" value="&lt;font style=&quot;font-size: 14px;&quot;&gt;&lt;font color=&quot;#2d7600&quot;&gt;Yes&lt;/font&gt;&lt;br&gt;&lt;/font&gt;" style="rounded=1;whiteSpace=wrap;html=1;fillColor=none;fontColor=#ffffff;strokeColor=none;fontStyle=1;fontSize=14;align=left;" vertex="1" parent="1">
          <mxGeometry x="835" y="395" width="40" height="30" as="geometry" />
        </mxCell>
        <mxCell id="4RIrmKNSk8DNVuc5E2D_-13" value="&lt;font style=&quot;font-size: 14px;&quot;&gt;&lt;font color=&quot;#cc0000&quot;&gt;No&lt;/font&gt;&lt;br&gt;&lt;/font&gt;" style="rounded=1;whiteSpace=wrap;html=1;fillColor=none;fontColor=#ffffff;strokeColor=none;fontStyle=1;fontSize=14;align=left;" vertex="1" parent="1">
          <mxGeometry x="880" y="520" width="40" height="30" as="geometry" />
        </mxCell>
        <mxCell id="4RIrmKNSk8DNVuc5E2D_-14" value="&lt;font color=&quot;#00331a&quot; style=&quot;font-size: 15px;&quot;&gt;Login, Register, ...&lt;br&gt;Get categories, products, filter products,...&lt;br&gt;Healthcheck,Swagger ....&lt;br style=&quot;font-size: 13px;&quot;&gt;&lt;/font&gt;" style="rounded=1;whiteSpace=wrap;html=1;fillColor=none;fontColor=#ffffff;strokeColor=none;align=left;fontSize=13;fontStyle=1" vertex="1" parent="1">
          <mxGeometry x="966.5" y="365" width="233.5" height="60" as="geometry" />
        </mxCell>
        <mxCell id="4RIrmKNSk8DNVuc5E2D_-16" value="&lt;font style=&quot;font-size: 20px;&quot;&gt;Controller&lt;/font&gt;" style="rounded=1;whiteSpace=wrap;html=1;fillColor=#008a00;fontColor=#ffffff;strokeColor=#005700;arcSize=7;" vertex="1" parent="1">
          <mxGeometry x="1900" y="239.83999999999992" width="190" height="640.16" as="geometry" />
        </mxCell>
        <mxCell id="4RIrmKNSk8DNVuc5E2D_-17" value="&lt;font color=&quot;#00331a&quot; style=&quot;font-size: 18px;&quot;&gt;@RestController&lt;/font&gt;" style="rounded=1;whiteSpace=wrap;html=1;fillColor=none;fontColor=#ffffff;strokeColor=none;fontStyle=1;fontSize=14;" vertex="1" parent="1">
          <mxGeometry x="1945" y="190" width="100" height="30" as="geometry" />
        </mxCell>
        <mxCell id="4RIrmKNSk8DNVuc5E2D_-18" value="" style="endArrow=block;html=1;rounded=0;fillColor=#60a917;strokeColor=#2D7600;strokeWidth=6;endFill=1;" edge="1" parent="1">
          <mxGeometry width="50" height="50" relative="1" as="geometry">
            <mxPoint x="1210" y="394.5" as="sourcePoint" />
            <mxPoint x="1535" y="394.5" as="targetPoint" />
          </mxGeometry>
        </mxCell>
        <mxCell id="4RIrmKNSk8DNVuc5E2D_-19" value="&lt;font color=&quot;#00331a&quot; style=&quot;font-size: 15px;&quot;&gt;- Check JWT Token(is valid, not expired,...)&lt;br&gt;- Get userDetail from Token&lt;br&gt;- Get Role from userDetail&lt;br style=&quot;font-size: 13px;&quot;&gt;&lt;/font&gt;" style="rounded=1;whiteSpace=wrap;html=1;fillColor=none;fontColor=#ffffff;strokeColor=none;align=left;fontSize=13;fontStyle=1" vertex="1" parent="1">
          <mxGeometry x="951" y="565" width="315" height="60" as="geometry" />
        </mxCell>
        <mxCell id="4RIrmKNSk8DNVuc5E2D_-20" value="" style="endArrow=block;html=1;rounded=0;fillColor=#60a917;strokeColor=#CC0000;strokeWidth=3;endFill=1;" edge="1" parent="1">
          <mxGeometry width="50" height="50" relative="1" as="geometry">
            <mxPoint x="930" y="605" as="sourcePoint" />
            <mxPoint x="460" y="605" as="targetPoint" />
          </mxGeometry>
        </mxCell>
        <mxCell id="4RIrmKNSk8DNVuc5E2D_-21" value="&lt;font style=&quot;font-size: 14px;&quot;&gt;&lt;font color=&quot;#cc0000&quot;&gt;&amp;nbsp;Unauthorized(if token is Invalid, expired, ....&lt;/font&gt;&lt;br&gt;&lt;/font&gt;" style="rounded=1;whiteSpace=wrap;html=1;fillColor=#fad9d5;strokeColor=#ae4132;fontStyle=1;fontSize=14;align=left;" vertex="1" parent="1">
          <mxGeometry x="514" y="565" width="321" height="35" as="geometry" />
        </mxCell>
        <mxCell id="4RIrmKNSk8DNVuc5E2D_-23" value="" style="endArrow=oval;html=1;rounded=0;fillColor=#60a917;strokeColor=#2D7600;strokeWidth=4;endFill=1;entryX=0.657;entryY=0.476;entryDx=0;entryDy=0;entryPerimeter=0;" edge="1" parent="1">
          <mxGeometry width="50" height="50" relative="1" as="geometry">
            <mxPoint x="1255" y="587.31" as="sourcePoint" />
            <mxPoint x="1355.1399999999999" y="542.69" as="targetPoint" />
          </mxGeometry>
        </mxCell>
        <mxCell id="4RIrmKNSk8DNVuc5E2D_-24" value="" style="endArrow=oval;html=1;rounded=0;fillColor=#60a917;strokeColor=#6600CC;strokeWidth=4;endFill=1;" edge="1" parent="1">
          <mxGeometry width="50" height="50" relative="1" as="geometry">
            <mxPoint x="1255" y="610" as="sourcePoint" />
            <mxPoint x="1350" y="650" as="targetPoint" />
          </mxGeometry>
        </mxCell>
        <mxCell id="4RIrmKNSk8DNVuc5E2D_-25" value="&lt;font style=&quot;font-size: 14px;&quot;&gt;&lt;font color=&quot;#2d7600&quot;&gt;User&lt;/font&gt;&lt;br&gt;&lt;/font&gt;" style="rounded=1;whiteSpace=wrap;html=1;fillColor=none;fontColor=#ffffff;strokeColor=none;fontStyle=1;fontSize=14;align=left;" vertex="1" parent="1">
          <mxGeometry x="1275" y="535" width="40" height="30" as="geometry" />
        </mxCell>
        <mxCell id="4RIrmKNSk8DNVuc5E2D_-26" value="&lt;font style=&quot;font-size: 14px;&quot;&gt;&lt;font color=&quot;#6600cc&quot;&gt;Admin&lt;/font&gt;&lt;br&gt;&lt;/font&gt;" style="rounded=1;whiteSpace=wrap;html=1;fillColor=none;fontColor=#ffffff;strokeColor=none;fontStyle=1;fontSize=14;align=left;" vertex="1" parent="1">
          <mxGeometry x="1265" y="640" width="50" height="40" as="geometry" />
        </mxCell>
        <mxCell id="4RIrmKNSk8DNVuc5E2D_-27" value="&amp;nbsp;" style="rounded=1;whiteSpace=wrap;html=1;fillColor=none;strokeColor=#4C0099;arcSize=3;strokeWidth=3;" vertex="1" parent="1">
          <mxGeometry x="1470" y="247" width="330" height="630" as="geometry" />
        </mxCell>
        <mxCell id="4RIrmKNSk8DNVuc5E2D_-28" value="&lt;font color=&quot;#00331a&quot; style=&quot;&quot;&gt;&lt;font style=&quot;font-size: 18px;&quot;&gt;&amp;nbsp;WebSecurityConfig&lt;br&gt;&lt;/font&gt;&amp;nbsp;securityFilterChain(HttpSecurity http)&lt;br&gt;&lt;/font&gt;" style="rounded=1;whiteSpace=wrap;html=1;fillColor=none;fontColor=#ffffff;strokeColor=none;fontStyle=1;fontSize=14;align=left;" vertex="1" parent="1">
          <mxGeometry x="1520" y="197" width="300" height="50" as="geometry" />
        </mxCell>
        <mxCell id="4RIrmKNSk8DNVuc5E2D_-29" value="" style="endArrow=block;html=1;rounded=0;fillColor=#60a917;strokeColor=#2D7600;strokeWidth=4;endFill=1;" edge="1" parent="1">
          <mxGeometry width="50" height="50" relative="1" as="geometry">
            <mxPoint x="1354" y="542.5" as="sourcePoint" />
            <mxPoint x="1545" y="543" as="targetPoint" />
          </mxGeometry>
        </mxCell>
        <mxCell id="4RIrmKNSk8DNVuc5E2D_-30" value="" style="endArrow=block;html=1;rounded=0;fillColor=#60a917;strokeColor=#6600CC;strokeWidth=4;endFill=1;" edge="1" parent="1">
          <mxGeometry width="50" height="50" relative="1" as="geometry">
            <mxPoint x="1352" y="650" as="sourcePoint" />
            <mxPoint x="1545" y="649" as="targetPoint" />
          </mxGeometry>
        </mxCell>
        <mxCell id="4RIrmKNSk8DNVuc5E2D_-32" value="&lt;font color=&quot;#00331a&quot; style=&quot;font-size: 15px;&quot;&gt;Check Request Match/PreAuthorize:&lt;br&gt;POST: insert order,...&lt;br&gt;GET: products, categories,...&lt;br&gt;&lt;br style=&quot;font-size: 13px;&quot;&gt;&lt;/font&gt;" style="rounded=1;whiteSpace=wrap;html=1;fillColor=none;fontColor=#ffffff;strokeColor=none;align=left;fontSize=13;fontStyle=1" vertex="1" parent="1">
          <mxGeometry x="1553.25" y="500" width="256.75" height="90" as="geometry" />
        </mxCell>
        <mxCell id="4RIrmKNSk8DNVuc5E2D_-33" value="&lt;font style=&quot;font-size: 20px;&quot;&gt;permitAll()&lt;/font&gt;" style="rounded=1;whiteSpace=wrap;html=1;fillColor=#b0e3e6;strokeColor=#0e8088;fontColor=#00331A;" vertex="1" parent="1">
          <mxGeometry x="1553.5" y="374.6300000000001" width="170" height="38.75" as="geometry" />
        </mxCell>
        <mxCell id="4RIrmKNSk8DNVuc5E2D_-34" value="&lt;font color=&quot;#00331a&quot; style=&quot;font-size: 15px;&quot;&gt;Check Request Match:&lt;br&gt;POST: insert order,...&lt;br&gt;GET: products, categories,...&lt;br&gt;&lt;br style=&quot;font-size: 13px;&quot;&gt;&lt;/font&gt;" style="rounded=1;whiteSpace=wrap;html=1;fillColor=none;fontColor=#ffffff;strokeColor=none;align=left;fontSize=13;fontStyle=1" vertex="1" parent="1">
          <mxGeometry x="1560" y="625" width="233.5" height="60" as="geometry" />
        </mxCell>
        <mxCell id="4RIrmKNSk8DNVuc5E2D_-35" value="" style="endArrow=block;html=1;rounded=0;fillColor=#60a917;strokeColor=#2D7600;strokeWidth=6;endFill=1;" edge="1" parent="1">
          <mxGeometry width="50" height="50" relative="1" as="geometry">
            <mxPoint x="1740" y="395" as="sourcePoint" />
            <mxPoint x="1880" y="395" as="targetPoint" />
          </mxGeometry>
        </mxCell>
        <mxCell id="4RIrmKNSk8DNVuc5E2D_-36" value="&amp;nbsp; &amp;nbsp; &amp;nbsp; &amp;nbsp;&amp;nbsp;" style="endArrow=block;html=1;rounded=0;fillColor=#60a917;strokeColor=#CC0000;strokeWidth=3;endFill=1;" edge="1" parent="1">
          <mxGeometry width="50" height="50" relative="1" as="geometry">
            <mxPoint x="1570" y="710" as="sourcePoint" />
            <mxPoint x="460" y="710" as="targetPoint" />
          </mxGeometry>
        </mxCell>
        <mxCell id="4RIrmKNSk8DNVuc5E2D_-37" value="&lt;font style=&quot;font-size: 14px;&quot;&gt;&lt;font color=&quot;#cc0000&quot;&gt;&amp;nbsp;403(if request does not match,...)&lt;/font&gt;&lt;br&gt;&lt;/font&gt;" style="rounded=1;whiteSpace=wrap;html=1;fillColor=#fad9d5;strokeColor=#ae4132;fontStyle=1;fontSize=14;align=left;" vertex="1" parent="1">
          <mxGeometry x="860" y="660" width="321" height="35" as="geometry" />
        </mxCell>
        <mxCell id="4RIrmKNSk8DNVuc5E2D_-38" value="" style="endArrow=block;html=1;rounded=0;fillColor=#60a917;strokeColor=#2D7600;strokeWidth=6;endFill=1;" edge="1" parent="1">
          <mxGeometry width="50" height="50" relative="1" as="geometry">
            <mxPoint x="1750" y="549" as="sourcePoint" />
            <mxPoint x="1890" y="549" as="targetPoint" />
          </mxGeometry>
        </mxCell>
        <mxCell id="4RIrmKNSk8DNVuc5E2D_-39" value="" style="endArrow=block;html=1;rounded=0;fillColor=#60a917;strokeColor=#4C0099;strokeWidth=6;endFill=1;" edge="1" parent="1">
          <mxGeometry width="50" height="50" relative="1" as="geometry">
            <mxPoint x="1750" y="640" as="sourcePoint" />
            <mxPoint x="1890" y="640" as="targetPoint" />
          </mxGeometry>
        </mxCell>
      </root>
    </mxGraphModel>
  </diagram>
</mxfile>
